<?xml version="1.0" encoding="UTF-8"?>
<svg id="Calque_1" xmlns="http://www.w3.org/2000/svg" version="1.1" xmlns:xlink="http://www.w3.org/1999/xlink" viewBox="0 0 595.28 595.28">
  <!-- Generator: Adobe Illustrator 30.0.0, SVG Export Plug-In . SVG Version: 2.1.1 Build 123)  -->
  <defs>
    <style>
      .st0 {
        fill: url(#Dégradé_sans_nom_11371);
      }

      .st1 {
        fill: #ac8dc1;
      }

      .st2 {
        fill: #fff;
      }

      .st3 {
        fill: url(#Dégradé_sans_nom_1146);
      }

      .st4 {
        fill: url(#Dégradé_sans_nom_1137);
      }

      .st5 {
        fill: #343434;
      }

      .st6 {
        fill: url(#Dégradé_sans_nom_11461);
      }

      .st7 {
        fill: #282929;
      }

      .st8 {
        clip-path: url(#clippath);
      }
    </style>
    <clipPath id="clippath">
      <path class="st1" d="M243.09,349.37c-3.47-4-19.35,2.94-18.15,9.21l53.2,118.86c8.88,20.95,10.72,31.73-5.8,46.46l-44.73,39.87c-28.86,25.72-72.92,7.5-78.07-32.28l-.08-.61c-2.02-15.59-10.63-29.31-23.36-37.22l-14.52-9.02c-18.48-11.48-27.6-34.68-22.33-56.82L177.11,58.15c5.39-22.68,24.5-38.56,46.39-38.56h107.76c19.14,0,36.44,12.19,43.99,30.98l128.37,319.71c8.76,21.81,2.33,47.2-15.54,61.31l-56.2,44.4c-5.82,4.6-10.59,10.55-13.95,17.4l-18.25,37.24c-18.44,37.63-69.27,36.23-75.5-3.25"/>
    </clipPath>
    <linearGradient id="Dégradé_sans_nom_1137" data-name="Dégradé sans nom 1137" x1="2699.74" y1="611.23" x2="2713.94" y2="286.11" gradientTransform="translate(2738.01 1115.23) rotate(-175.21) scale(1 1.25)" gradientUnits="userSpaceOnUse">
      <stop offset="0" stop-color="#10a038"/>
      <stop offset="1" stop-color="#fff"/>
    </linearGradient>
    <linearGradient id="Dégradé_sans_nom_1146" data-name="Dégradé sans nom 1146" x1="1803.92" y1="-284.08" x2="1818.11" y2="-609.2" gradientTransform="translate(644.42 3210.08) rotate(-89.63) scale(1.74 .95)" gradientUnits="userSpaceOnUse">
      <stop offset="0" stop-color="#bf0c71"/>
      <stop offset="1" stop-color="#fff"/>
    </linearGradient>
    <linearGradient id="Dégradé_sans_nom_11461" data-name="Dégradé sans nom 1146" x1="238.41" y1="558.03" x2="-57.18" y2="543.2" gradientTransform="matrix(1,0,0,1,0,0)" xlink:href="#Dégradé_sans_nom_1146"/>
    <linearGradient id="Dégradé_sans_nom_11371" data-name="Dégradé sans nom 1137" x1="3126.44" y1="1025.51" x2="3140.63" y2="700.39" gradientTransform="translate(2314.84 776.38) rotate(159.16) scale(.5 1.25)" xlink:href="#Dégradé_sans_nom_1137"/>
  </defs>
  <path class="st1" d="M243.09,349.37c-3.47-4-19.35,2.94-18.15,9.21l53.2,118.86c8.88,20.95,10.72,31.73-5.8,46.46l-44.73,39.87c-28.86,25.72-72.92,7.5-78.07-32.28l-.08-.61c-2.02-15.59-10.63-29.31-23.36-37.22l-14.52-9.02c-18.48-11.48-27.6-34.68-22.33-56.82L177.11,58.15c5.39-22.68,24.5-38.56,46.39-38.56h107.76c19.14,0,36.44,12.19,43.99,30.98l128.37,319.71c8.76,21.81,2.33,47.2-15.54,61.31l-56.2,44.4c-5.82,4.6-10.59,10.55-13.95,17.4l-18.25,37.24c-18.44,37.63-69.27,36.23-75.5-3.25"/>
  <g class="st8">
    <path class="st4" d="M76.29,526.92c-26.24,8.48-57.84,1.9-77.5-21.21-52.49-61.69-20.05-241.44,69.95-323.1,6.32-5.73,75.08-68.12,109.33-38.97,57.72,49.13,5.87,348.5-101.78,383.28Z"/>
    <path class="st3" d="M91.38,57.42c-7.81-44.41-4.46-100.27,12.05-137.69,44.09-99.93,182.26-68.84,248.96,76.09,4.68,10.17,55.65,120.91,35.31,184.55-34.28,107.25-264.28,59.26-296.31-122.94Z"/>
    <path class="st7" d="M497.47,531.75c19.75-26.41,22.39-44.22,36.04-110.12,23.8-114.93,25.2-106.37,24.91-118.29-1.39-56.12-28.58-91.09-58.04-128.97-25.81-33.19-27.89-23.12-56.88-60.18-35.04-44.8-38.3-67.57-73.96-79.61-31.19-10.53-75.66-8.97-86.63,3.79-16.46,19.14,60.26,42.69,72.63,111.08,8.17,45.14-24.59,65.36-61.83,171.18-27.57,78.35-48.03,136.47-32.76,191.12,15.15,54.21,68.68,116.6,140.62,94.44,51.23-15.78,91.13-68.07,95.9-74.45Z"/>
    <path class="st1" d="M268.24,335.47c.27-38.22,27.72-78.32,53.03-77.91,34.37.55,71.12,75.84,47.61,114.03-15.93,25.87-59.81,35.2-83.63,12.62-17.25-16.35-17.06-42.89-17.02-48.73Z"/>
    <path class="st1" d="M442.14,518.68c1.71,47.42-32.7,98.54-66.47,99.32-45.84,1.05-98.9-90.49-69.64-139.05,19.83-32.9,77.82-46.68,110.78-19.86,23.87,19.42,25.06,52.35,25.32,59.59Z"/>
    <path class="st1" d="M297.57,150.91c1.8,47.42-34.46,98.54-70.05,99.32-48.31,1.05-104.23-90.49-73.39-139.05,20.9-32.9,82.01-46.68,116.75-19.86,25.16,19.42,26.41,52.35,26.69,59.59Z"/>
    <path class="st2" d="M270.74,140.88l56.53,124.8c7.04,15.54.55,36.63-11.39,37.02l-69.83,2.3c-9.59.32-17.19-13.4-15.64-28.22l13.3-127.1c2.16-20.64,19.16-26.17,27.03-8.8Z"/>
    <path class="st6" d="M174.52,672.75l-214.85-64.25c-26.75-8-24.64-42.36,3.7-60.3l165.75-104.96c22.76-14.42,49.69-9.38,55.42,10.35l49.1,169.21c7.97,27.48-29.21,58.89-59.12,49.95Z"/>
    <path class="st5" d="M53.55,313.21c.27-38.22,27.72-78.32,53.03-77.91,34.37.55,71.12,75.84,47.61,114.03-15.93,25.87-59.81,35.2-83.63,12.62-17.25-16.35-17.06-42.89-17.02-48.73Z"/>
    <path class="st0" d="M554.14,503.93c-7.98,14.42-24.2,16.41-41.77.21-46.9-43.24-103.56-216.22-96.85-313.89.47-6.85,5.6-81.48,31.84-63.45,44.21,30.4,139.53,317.95,106.77,377.13Z"/>
  </g>
</svg>