<?xml version="1.0" encoding="UTF-8"?>
<svg id="Calque_1" xmlns="http://www.w3.org/2000/svg" version="1.1" xmlns:xlink="http://www.w3.org/1999/xlink" viewBox="0 0 600 600">
  <!-- Generator: Adobe Illustrator 30.0.0, SVG Export Plug-In . SVG Version: 2.1.1 Build 123)  -->
  <defs>
    <style>
      .st0 {
        fill: #fff;
        font-family: Arial-BoldMT, Arial;
        font-size: 28px;
        font-weight: 700;
        isolation: isolate;
        letter-spacing: .07em;
      }

      .st1 {
        fill: #e6ecff;
      }

      .st1, .st2 {
        stroke: #e6ecff;
        stroke-width: 3px;
      }

      .st2, .st3 {
        fill: none;
      }

      .st4 {
        fill: url(#Dégradé_sans_nom);
      }

      .st5 {
        opacity: .85;
      }

      .st3 {
        stroke: #b8c6ff;
        stroke-width: 4px;
      }
    </style>
    <linearGradient id="Dégradé_sans_nom" data-name="Dégradé sans nom" x1="1.99" y1="597.28" x2="2.99" y2="596.28" gradientTransform="translate(-448 179334.67) scale(300 -300)" gradientUnits="userSpaceOnUse">
      <stop offset="0" stop-color="#4f8cff"/>
      <stop offset="1" stop-color="#7a3fff"/>
    </linearGradient>
  </defs>
  <g>
    <line class="st3" x1="230" y1="110" x2="230" y2="70"/>
    <line class="st3" x1="300" y1="110" x2="300" y2="70"/>
    <line class="st3" x1="370" y1="110" x2="370" y2="70"/>
    <line class="st3" x1="230" y1="490" x2="230" y2="530"/>
    <line class="st3" x1="300" y1="490" x2="300" y2="530"/>
    <line class="st3" x1="370" y1="490" x2="370" y2="530"/>
    <line class="st3" x1="110" y1="230" x2="70" y2="230"/>
    <line class="st3" x1="110" y1="300" x2="70" y2="300"/>
    <line class="st3" x1="110" y1="370" x2="70" y2="370"/>
    <line class="st3" x1="490" y1="230" x2="530" y2="230"/>
    <line class="st3" x1="490" y1="300" x2="530" y2="300"/>
    <line class="st3" x1="490" y1="370" x2="530" y2="370"/>
  </g>
  <rect class="st4" x="150" y="150" width="300" height="300" rx="24" ry="24"/>
  <g class="st5">
    <path class="st2" d="M200,220h120v60"/>
    <path class="st2" d="M260,350v-90h120"/>
    <path class="st2" d="M220,300h80v80"/>
    <circle class="st1" cx="320" cy="280" r="6"/>
    <circle class="st1" cx="260" cy="260" r="6"/>
    <circle class="st1" cx="300" cy="380" r="6"/>
  </g>
  <text class="st0" transform="translate(201.32 320)"><tspan x="0" y="0">NEXUS CELL</tspan></text>
</svg>